<svg xmlns="http://www.w3.org/2000/svg" xmlns:xlink="http://www.w3.org/1999/xlink" fill="none" version="1.1" width="89" height="42" viewBox="0 0 89 42"><defs><mask id="master_svg0_59_31867" style="mask-type:alpha" maskUnits="objectBoundingBox"><g><g><path d="M0,0C0,0,89,0,89,0C89,0,89,42,89,42C89,42,0,42,0,42C0,42,0,0,0,0Z" fill="#000000" fill-opacity="1"/></g></g></mask><mask id="master_svg1_59_31871" style="mask-type:alpha" maskUnits="objectBoundingBox"><g><g><path d="M2,0C2,0,89,0,89,0C89,0,89,44,89,44C89,44,2,44,2,44C2,44,2,0,2,0Z" fill="#000000" fill-opacity="1"/></g></g></mask><mask id="master_svg2_59_31876" style="mask-type:alpha" maskUnits="objectBoundingBox"><g><g><path d="M1.844999998807907,2.9709999561309814C1.844999998807907,2.9709999561309814,87.5109999988079,2.9709999561309814,87.5109999988079,2.9709999561309814C87.5109999988079,2.9709999561309814,87.5109999988079,38.74599995613098,87.5109999988079,38.74599995613098C87.5109999988079,38.74599995613098,1.844999998807907,38.74599995613098,1.844999998807907,38.74599995613098C1.844999998807907,38.74599995613098,1.844999998807907,2.9709999561309814,1.844999998807907,2.9709999561309814Z" fill="#000000" fill-opacity="1"/></g></g></mask></defs><g mask="url(#master_svg0_59_31867)"><g><g mask="url(#master_svg1_59_31871)"><g><g><g mask="url(#master_svg2_59_31876)"><g><g><path d="M18.544999998807906,38.36400113863964C18.544999998807906,38.36400113863964,11.144999998807908,29.705001138639638,11.144999998807908,29.705001138639638C11.144999998807908,29.705001138639638,17.497999998807906,22.547001138639637,17.497999998807906,22.547001138639637C17.497999998807906,22.547001138639637,12.897999998807908,22.547001138639637,12.897999998807908,22.547001138639637C12.897999998807908,22.547001138639637,7.856999998807907,28.124001138639635,7.856999998807907,28.124001138639635C7.856999998807907,28.124001138639635,7.856999998807907,17.605001138639636,7.856999998807907,17.605001138639636C7.856999998807907,17.605001138639636,1.844999998807907,17.605001138639636,1.844999998807907,17.605001138639636C2.471597998807907,18.077973138639635,2.985119998807907,18.684431138639635,3.348329998807907,19.380421138639637C3.7115499988079073,20.076411138639635,3.915359998807907,20.844491138639636,3.944999998807907,21.629001138639637C3.944999998807907,21.629001138639637,3.944999998807907,38.36400113863964,3.944999998807907,38.36400113863964C3.944999998807907,38.36400113863964,7.856999998807907,38.36400113863964,7.856999998807907,38.36400113863964C7.856999998807907,38.36400113863964,7.856999998807907,31.670001138639634,7.856999998807907,31.670001138639634C7.856999998807907,31.670001138639634,13.664999998807907,38.36400113863964,13.664999998807907,38.36400113863964C13.664999998807907,38.36400113863964,18.544999998807906,38.36400113863964,18.544999998807906,38.36400113863964Z" fill="#FFFFFF" fill-opacity="1"/></g><g><path d="M69.21699844241142,22.54600016970653C69.21699844241142,22.54600016970653,69.21699844241142,38.36400016970653,69.21699844241142,38.36400016970653C69.21699844241142,38.36400016970653,65.30199844241142,38.36400016970653,65.30199844241142,38.36400016970653C65.30199844241142,38.36400016970653,65.30199844241142,26.56900016970653,65.30199844241142,26.56900016970653C65.27213844241142,25.78468016970653,65.06822844241142,25.01682016970653,64.70502844241142,24.321020169706532C64.34181844241142,23.62522016970653,63.82841744241142,23.01891516970653,63.20199844241142,22.54600016970653C63.20199844241142,22.54600016970653,69.21699844241142,22.54600016970653,69.21699844241142,22.54600016970653Z" fill="#FFFFFF" fill-opacity="1"/></g><g><path d="M85.63899603152275,35.03100016970653C85.63899603152275,35.03100016970653,87.51099603152275,38.36400016970653,87.51099603152275,38.36400016970653C87.51099603152275,38.36400016970653,72.12999603152275,38.36400016970653,72.12999603152275,38.36400016970653C72.12999603152275,38.36400016970653,80.02998603152275,25.88000016970653,80.02998603152275,25.88000016970653C80.02998603152275,25.88000016970653,72.65000003152275,25.88000016970653,72.65000003152275,25.88000016970653C72.65000003152275,25.88000016970653,72.65000003152275,22.54600016970653,72.65000003152275,22.54600016970653C72.65000003152275,22.54600016970653,87.17099603152275,22.54600016970653,87.17099603152275,22.54600016970653C87.17099603152275,22.54600016970653,78.59799603152275,35.03000016970653,78.59799603152275,35.03000016970653C78.59799603152275,35.03000016970653,85.63899603152275,35.03100016970653,85.63899603152275,35.03100016970653Z" fill="#FFFFFF" fill-opacity="1"/></g><g><path d="M25.938000044584275,33.80500113863964C25.938000044584275,33.80500113863964,25.938000044584275,25.880001138639635,25.938000044584275,25.880001138639635C25.938000044584275,25.880001138639635,28.684000044584273,25.880001138639635,28.684000044584273,25.880001138639635C28.684000044584273,25.880001138639635,30.557000044584274,22.546001138639635,30.557000044584274,22.546001138639635C30.557000044584274,22.546001138639635,25.938000044584275,22.546001138639635,25.938000044584275,22.546001138639635C25.938000044584275,22.546001138639635,25.938000044584275,17.605001138639636,25.938000044584275,17.605001138639636C25.938000044584275,17.605001138639636,22.028000044584275,19.888001138639638,22.028000044584275,19.888001138639638C22.028000044584275,19.888001138639638,22.028000044584275,22.542001138639638,22.028000044584275,22.542001138639638C22.028000044584275,22.542001138639638,19.147000044584274,22.542001138639638,19.147000044584274,22.542001138639638C19.147000044584274,22.542001138639638,19.147000044584274,25.876001138639637,19.147000044584274,25.876001138639637C19.147000044584274,25.876001138639637,22.028000044584275,25.876001138639637,22.028000044584275,25.876001138639637C22.028000044584275,25.876001138639637,22.028000044584275,34.01500113863963,22.028000044584275,34.01500113863963C22.022060044584276,34.580101138639634,22.127580044584274,35.14080113863963,22.338510044584275,35.665101138639635C22.549450044584276,36.18940113863964,22.861670044584272,36.667001138639634,23.257320044584276,37.07060113863963C23.652970044584272,37.47410113863964,24.124280044584275,37.795701138639636,24.644310044584273,38.01690113863964C25.164340044584275,38.23820113863964,25.722880044584272,38.35480113863964,26.288000044584273,38.36000113863963C26.288000044584273,38.36000113863963,29.388000044584274,38.36000113863963,29.388000044584274,38.36000113863963C29.388000044584274,38.36000113863963,29.388000044584274,35.03000113863963,29.388000044584274,35.03000113863963C29.388000044584274,35.03000113863963,27.142000044584275,35.03000113863963,27.142000044584275,35.03000113863963C26.820010044584272,35.025801138639636,26.512850044584276,34.89400113863964,26.287880044584274,34.663601138639635C26.062920044584274,34.43320113863963,25.938530044584276,34.12300113863964,25.942000044584276,33.801001138639634" fill="#FFFFFF" fill-opacity="1"/></g><g><path d="M57.24800201296806,22.546000254179187C57.24800201296806,22.546000254179187,53.36800201296806,30.877999254179187,53.36800201296806,30.877999254179187C53.36800201296806,30.877999254179187,48.85900201296806,22.130999254179187,48.85900201296806,22.130999254179187C48.85900201296806,22.130999254179187,44.34800201296807,30.87999925417919,44.34800201296807,30.87999925417919C44.34800201296807,30.87999925417919,40.46900201296806,22.546000254179187,40.46900201296806,22.546000254179187C40.46900201296806,22.546000254179187,34.38300201296806,22.546000254179187,34.38300201296806,22.546000254179187C36.06123201296806,23.486979254179186,37.419492012968064,24.908629254179186,38.28300201296806,26.627999254179187C39.22800201296806,28.582999254179185,44.160002012968064,38.74499925417919,44.160002012968064,38.74499925417919C44.160002012968064,38.74499925417919,48.86000201296807,29.586999254179187,48.86000201296807,29.586999254179187C48.86000201296807,29.586999254179187,53.56000201296806,38.74499925417919,53.56000201296806,38.74499925417919C53.56000201296806,38.74499925417919,61.452002012968066,22.545000254179186,61.452002012968066,22.545000254179186C61.452002012968066,22.545000254179186,57.24800201296806,22.546000254179187,57.24800201296806,22.546000254179187Z" fill="#FFFFFF" fill-opacity="1"/></g><g><path d="M66.91400326418876,17.616999956083482C66.37600326418877,13.367999956083484,63.42400326418877,8.533999956083484,59.22100326418877,5.016999956083485C63.752003264188765,6.6439999560834835,67.67500326418877,5.859999956083485,69.44600326418876,2.969999956083484C69.98400326418877,7.218999956083484,72.93600326418877,12.052999956083484,77.13800326418877,15.569999956083484C72.60900326418877,13.942999956083485,68.68500326418877,14.727999956083483,66.91400326418876,17.616999956083482Z" fill="#EC1C24" fill-opacity="1"/></g></g></g></g></g></g></g></g></svg>