<svg version="1.1" id="Layer_1" xmlns="http://www.w3.org/2000/svg" xmlns:xlink="http://www.w3.org/1999/xlink" x="0px" y="0px"
	 width="100%" viewBox="0 0 832 672" enable-background="new 0 0 832 672" xml:space="preserve">
<path fill="#000000" opacity="1.000000" stroke="none" 
	d="
M321.810059,159.671173 
	C321.609131,156.749146 321.476196,154.251938 321.186127,151.773102 
	C320.180908,143.182098 323.872894,138.842300 332.652344,138.775299 
	C350.661804,138.637817 368.619720,139.857758 386.477753,141.991714 
	C429.404724,147.121307 471.577881,155.945663 512.947815,168.573822 
	C548.479187,179.419754 582.463135,193.793442 614.306213,212.997940 
	C618.182678,215.335815 621.276672,215.897049 625.228821,213.446335 
	C630.060913,210.449936 635.429504,208.526260 641.057190,207.499146 
	C651.654907,205.564972 659.951904,212.314819 660.274292,223.060791 
	C660.432983,228.349915 659.263977,233.416489 656.820129,238.001663 
	C655.117371,241.196350 655.866577,242.871277 658.396667,245.127090 
	C673.424255,258.525635 686.345642,273.682404 696.106628,291.402405 
	C711.824341,319.936279 714.513489,350.188660 707.622864,381.538330 
	C701.378540,409.947693 687.584717,434.683105 669.526184,457.194397 
	C660.630310,468.283691 650.541199,478.219696 639.359802,486.975464 
	C636.291931,489.377838 636.121704,491.109344 638.091736,494.345062 
	C643.926758,503.928802 645.738586,514.098206 641.415588,524.908875 
	C637.399841,534.951355 627.907715,541.102295 617.074219,540.548462 
	C614.954712,540.440063 612.831482,539.669861 610.657654,540.414307 
	C609.558411,542.406799 610.432800,544.352051 610.672119,546.275452 
	C611.863525,555.851440 611.501526,565.248291 607.379395,574.180664 
	C604.841248,579.680969 602.507874,581.012634 596.714417,579.451294 
	C581.109558,575.245789 565.943665,570.157898 556.500366,555.551453 
	C555.289185,553.678040 553.914978,553.177612 551.904297,554.255737 
	C545.250061,557.823853 538.296509,560.519531 530.727844,561.405090 
	C528.297119,561.689514 527.737488,563.733948 526.944153,565.581726 
	C518.873169,584.379517 505.269531,598.580688 489.169067,610.613708 
	C482.936768,615.271545 481.000824,615.024109 475.425293,609.485962 
	C467.655365,601.768250 461.621521,592.846741 457.480988,582.664368 
	C456.692535,580.725403 456.365570,578.455261 453.937408,576.868774 
	C451.422791,579.900208 449.033081,583.044800 446.372406,585.940369 
	C437.316589,595.795776 426.903259,602.833191 412.651215,600.625549 
	C397.089569,598.214966 387.558533,586.877319 386.161377,569.525818 
	C385.531830,561.707703 385.527252,561.737244 377.629791,560.503052 
	C355.260986,557.007446 334.088715,549.480835 313.098114,541.332703 
	C287.874420,531.541321 263.328522,520.407471 240.992142,504.917175 
	C238.552017,503.224976 236.816437,503.298370 234.395432,505.205109 
	C223.633881,513.680786 211.149612,516.609497 197.741455,515.124146 
	C185.216797,513.736633 176.399246,503.092651 175.675293,489.292206 
	C175.242813,481.048218 175.806992,472.953796 179.748749,465.460266 
	C180.628555,463.787689 180.599930,462.460541 179.255447,460.959839 
	C160.604996,440.141937 151.687454,414.967377 148.990692,387.838104 
	C141.963303,317.142426 162.951279,256.216003 215.314880,207.295319 
	C237.896774,186.198227 265.654236,174.516083 295.243195,166.900085 
	C302.813904,164.951447 310.394745,162.902847 318.302216,162.742523 
	C320.086761,162.706345 321.679626,162.366257 321.810059,159.671173 
M484.398773,550.556641 
	C486.009308,552.693970 487.592773,554.904053 490.631042,555.000854 
	C499.104279,555.270752 507.536774,554.994141 515.839111,553.032227 
	C518.751282,552.344055 520.260071,550.508606 520.967712,547.620239 
	C521.836365,544.074890 521.483093,540.632202 520.297974,537.342346 
	C516.555603,526.953796 508.445862,524.918884 500.472412,532.263428 
	C496.159668,536.236023 492.627563,540.814697 490.063049,546.107117 
	C488.824188,548.663818 487.272125,550.688538 483.812897,549.189758 
	C483.804596,540.639160 489.199768,535.105774 494.975403,530.027710 
	C498.388031,527.027222 502.466309,524.783813 506.448120,522.061340 
	C504.613708,519.796936 502.517548,518.557556 500.211609,517.565369 
	C485.706543,511.324585 468.198364,519.901733 462.206909,536.428345 
	C461.363190,538.755615 462.094116,540.709167 463.439484,542.499451 
	C471.371887,553.055298 472.640564,552.817688 484.398773,550.556641 
M471.642670,292.345581 
	C470.246033,292.859955 468.710907,293.153839 467.477661,293.928375 
	C463.089600,296.684265 462.490417,296.529022 462.033112,291.381897 
	C461.063629,280.469604 462.754364,269.805084 465.399994,259.258484 
	C465.841309,257.499207 466.266724,254.989182 468.486359,255.417068 
	C471.316406,255.962631 470.076050,258.558746 469.770752,260.403839 
	C468.424957,268.537567 467.931915,276.720917 467.601929,285.892792 
	C480.513031,275.112000 490.775055,263.446594 498.401001,249.634369 
	C500.458130,245.908478 501.602936,241.597122 501.622986,237.173111 
	C501.659668,229.081055 496.692963,225.510956 489.152435,228.307800 
	C482.674438,230.710556 477.929993,235.374084 473.767029,240.666931 
	C462.211884,255.358368 453.187683,271.757416 442.560455,287.076874 
	C440.092010,290.635223 437.734344,294.283813 434.409882,297.129639 
	C433.377838,298.013092 432.065887,298.689667 430.877686,297.373169 
	C429.891815,296.280945 430.576111,295.199677 431.255463,294.210327 
	C433.047455,291.600616 435.060669,289.108582 436.507965,285.104279 
	C418.858673,294.768005 403.968231,306.127441 391.967255,320.931610 
	C369.384857,348.788727 354.746002,379.617096 360.414948,416.571014 
	C365.607422,450.419128 384.052887,474.893890 416.194916,487.705902 
	C441.102722,497.634308 466.967407,497.281586 492.909729,492.158691 
	C496.233063,491.502411 499.654877,491.916626 502.842133,489.560944 
	C516.526672,479.446808 531.515259,478.029266 547.264404,484.094116 
	C549.072205,484.790283 550.599243,485.126190 552.501526,484.543488 
	C560.618591,482.056854 568.781860,479.740265 576.741699,476.744476 
	C599.857666,468.044617 620.117981,455.381195 636.891846,436.837067 
	C661.248901,409.909424 668.135010,379.375244 658.737122,344.637848 
	C651.505737,317.908325 637.346863,296.439484 612.865173,282.471191 
	C609.893005,280.775360 607.230103,280.380524 603.914307,281.532471 
	C594.527954,284.793457 584.790955,285.883423 574.871704,285.303497 
	C571.860352,285.127411 569.028992,284.651825 567.927246,281.583740 
	C568.814697,279.809113 570.071594,279.828979 571.168518,279.513855 
	C577.073730,277.817474 583.302307,276.815063 588.814697,274.265900 
	C603.776062,267.347137 618.227722,259.532379 631.695618,249.800415 
	C639.728577,243.995758 644.157715,236.728073 646.341675,227.495071 
	C647.777710,221.424057 645.696289,219.241150 639.574951,220.862823 
	C630.322388,223.314072 621.689026,227.248596 613.817139,232.667770 
	C595.848083,245.038162 577.026184,256.063477 558.681458,267.839935 
	C557.089172,268.862122 555.377686,270.542755 553.231689,269.178253 
	C550.953064,267.729431 553.284729,265.606964 552.900391,263.596313 
	C537.623901,261.534119 522.532471,261.879974 507.399628,263.226715 
	C503.755310,263.551056 501.145416,264.765106 499.135376,267.840210 
	C492.332458,278.247894 483.053650,285.962952 471.642670,292.345581 
M458.487946,246.979919 
	C459.716919,245.402878 460.991760,243.859207 462.167023,242.243118 
	C467.873199,234.396545 473.664673,226.583633 482.492188,221.928940 
	C493.074951,216.348724 501.387115,215.763596 507.790192,225.851669 
	C509.295868,228.223877 511.869507,229.460587 514.322937,230.237015 
	C517.316162,231.184250 520.336670,230.248093 522.353394,227.639740 
	C524.188904,225.265793 523.171875,222.830322 521.719360,220.692139 
	C519.473022,217.385452 516.534241,215.074539 512.300171,214.911652 
	C510.618042,214.846954 508.602692,214.804077 508.397552,212.653519 
	C507.924438,207.693756 507.142151,202.560196 511.778503,198.800385 
	C513.588440,197.332642 515.518982,195.973160 517.126099,194.305588 
	C519.333862,192.014816 520.307556,188.666901 517.499695,186.878693 
	C512.911682,183.956726 509.061615,179.882553 503.636292,178.176041 
	C483.271332,171.770340 462.623047,166.492569 441.601776,162.816360 
	C431.299988,161.014771 420.977661,158.872589 410.348389,160.288910 
	C404.251373,161.101318 398.076874,161.314133 391.952484,161.944748 
	C386.475311,162.508698 381.778748,161.072983 377.748016,157.262527 
	C376.563141,156.142395 375.141724,154.951950 373.628601,154.553421 
	C365.891876,152.515686 358.022003,151.186584 349.984131,151.228836 
	C343.867676,151.260986 339.096191,154.467209 335.261597,158.665146 
	C332.684662,161.486252 334.770813,165.367661 335.028687,168.768280 
	C335.192017,170.922012 335.536255,173.063553 335.839233,175.204926 
	C337.261780,185.259705 338.853333,195.294128 340.048920,205.375610 
	C340.491913,209.111206 340.496643,212.875122 336.387329,215.447968 
	C316.049469,228.181503 298.573608,244.448395 282.434540,261.926971 
	C258.608368,287.730652 241.822052,317.926971 231.022797,351.356689 
	C225.163483,369.494598 222.668365,388.121002 225.924011,407.030426 
	C231.318085,438.360077 248.644836,462.526764 273.130646,481.762970 
	C296.515045,500.133850 323.476501,511.407684 351.791626,519.886536 
	C359.887939,522.311035 367.145477,521.107727 374.477997,517.958740 
	C376.555328,517.066711 379.029449,515.382996 376.904755,513.176758 
	C372.446899,508.547913 369.025452,502.939331 363.162689,499.571381 
	C351.391144,492.809052 338.319183,489.286469 325.860443,484.297577 
	C309.555878,477.768768 303.782166,470.446808 303.788208,452.877930 
	C303.792603,440.048645 305.089813,427.031128 303.366302,414.431915 
	C300.405853,392.790161 299.665527,371.172974 302.225311,349.672913 
	C304.139740,333.593201 307.188385,317.366028 317.460358,303.747467 
	C321.892670,297.871124 325.499573,295.979370 331.933411,299.141724 
	C341.442535,303.815735 350.949341,308.723511 357.966888,317.151123 
	C364.447662,324.934204 369.222626,326.653809 375.688568,323.912842 
	C378.440277,322.746368 380.118561,320.425507 381.938751,318.291718 
	C396.576935,301.132050 413.634949,286.966888 433.398834,276.019165 
	C438.940369,272.949585 442.865082,268.150055 444.773102,261.998596 
	C445.440826,259.845764 446.202759,257.815918 448.145294,256.646973 
	C452.086273,254.275543 454.773804,250.604950 458.487946,246.979919 
M289.918732,239.399475 
	C301.242828,229.478210 313.583405,221.009293 326.662994,213.581345 
	C328.450439,212.566238 330.664093,211.836472 329.735931,208.754822 
	C326.262299,197.221817 325.240387,185.243240 323.630005,173.378113 
	C323.210693,170.288589 322.193726,169.067871 318.722137,169.928253 
	C307.882721,172.614594 297.210968,175.829865 286.583862,179.233688 
	C242.552292,193.336838 208.097763,219.515350 184.928329,259.880280 
	C169.442642,286.858887 160.260208,315.762390 158.026993,346.903107 
	C155.905609,376.484772 159.241562,405.059082 171.986084,432.160370 
	C175.906967,440.498169 181.274445,447.934937 186.235245,455.634766 
	C187.788605,458.045746 190.064758,460.453339 188.574829,463.850525 
	C184.318161,473.556244 185.492859,483.344116 188.354446,493.082672 
	C189.602600,497.330444 192.394516,500.468048 196.794678,501.556976 
	C207.500687,504.206390 216.795624,500.183716 226.329346,495.705750 
	C221.487839,489.705078 213.812958,487.179077 211.529144,479.802917 
	C213.547943,478.717194 214.489594,478.950806 215.295273,479.640533 
	C222.322144,485.656189 230.585327,489.599609 238.622910,494.012848 
	C280.201691,516.842773 324.154053,533.431702 370.126892,544.861145 
	C376.902679,546.545654 383.949554,547.184021 390.428009,550.028381 
	C393.793182,551.505859 394.917114,553.653076 395.083893,557.736084 
	C395.430664,566.226318 397.419769,574.682617 403.793274,581.005615 
	C411.627869,588.778076 422.738251,588.295044 432.172638,580.197205 
	C438.172668,575.047180 442.237488,568.218201 447.479553,562.488037 
	C452.097534,557.439941 451.851288,552.296631 451.473755,545.912598 
	C447.016846,548.694580 442.492706,548.389099 438.016449,548.356262 
	C418.109192,548.210205 398.510101,545.303772 379.108368,541.190369 
	C341.173309,533.147705 304.912628,520.784241 272.780823,498.313141 
	C250.794754,482.937378 233.146484,463.713623 221.789139,439.209503 
	C208.684387,410.935242 208.574448,381.845947 217.415421,352.453308 
	C230.744095,308.140808 254.932617,270.711273 289.918732,239.399475 
M416.742218,508.127686 
	C415.672333,508.589294 414.543365,508.948944 413.542328,509.529297 
	C407.774078,512.873352 407.642334,515.755859 413.305145,519.070374 
	C417.912933,521.767334 422.724060,523.879944 428.269073,524.208801 
	C434.443634,524.575073 440.307892,525.923279 445.585938,529.781006 
	C450.613892,533.456055 455.334229,531.998047 458.605408,526.626404 
	C462.414703,520.371155 467.403992,515.335571 473.956696,512.001831 
	C477.677338,510.108917 481.640045,508.815552 485.754028,508.013794 
	C487.324677,507.707672 488.789032,507.131866 488.258728,505.088837 
	C487.847687,503.505219 486.845398,502.445312 485.017792,502.618866 
	C484.189453,502.697571 483.369171,502.861908 482.540680,502.937805 
	C469.960602,504.090088 457.347565,506.587769 444.747162,504.136444 
	C435.068604,502.253510 426.341278,505.099274 416.742218,508.127686 
M547.370239,539.058960 
	C564.638489,526.971680 558.163086,503.871613 547.353149,494.762115 
	C542.519043,490.688385 539.616821,490.713806 535.598267,494.297302 
	C532.665527,496.912506 533.975830,499.832855 534.643738,502.624146 
	C537.071533,512.770569 538.174072,522.893188 535.547241,533.204834 
	C533.473267,541.346375 535.381226,543.091919 543.614502,540.889404 
	C544.716187,540.594666 545.733643,539.985291 547.370239,539.058960 
M530.630920,514.874634 
	C529.795288,509.457001 529.574036,503.926697 527.527222,498.734680 
	C526.284424,495.582214 524.466858,493.584625 520.740906,493.044891 
	C513.363342,491.976196 501.128815,498.310822 498.097687,505.199371 
	C497.459991,506.648529 496.792175,508.295624 498.332794,509.269623 
	C503.432922,512.494019 507.220062,517.656799 512.086670,520.532776 
	C517.762329,523.886841 523.888489,526.249207 527.811096,532.755249 
	C531.083496,526.703064 530.700378,521.216370 530.630920,514.874634 
M618.416565,500.992706 
	C611.210388,504.992340 604.004211,508.991943 596.401733,513.211487 
	C599.766052,518.321899 603.031250,522.911682 605.493103,527.973022 
	C606.023071,529.062683 606.997742,529.852295 608.302246,529.662415 
	C615.001648,528.687927 622.263550,528.638062 626.290771,521.874634 
	C630.176331,515.349182 628.718384,508.803772 625.405884,502.437592 
	C623.875061,499.495728 621.911926,498.610382 618.416565,500.992706 
M574.843506,523.670532 
	C580.231445,524.051636 581.689514,520.312927 583.197388,516.170837 
	C584.651306,512.177124 582.241272,510.379181 579.774231,508.324585 
	C577.450317,506.389252 574.814758,504.995026 572.072205,503.820496 
	C569.567993,502.747986 567.320618,503.250275 566.449097,506.035339 
	C564.648254,511.790649 568.716309,520.808899 574.843506,523.670532 
M627.362793,473.959137 
	C628.971924,472.292664 630.635254,470.673981 632.165588,468.937958 
	C632.846985,468.164978 633.001038,467.087738 632.420288,466.145508 
	C631.804382,465.146332 630.712158,464.995972 629.780090,465.417175 
	C624.477234,467.813782 620.000366,471.133057 616.895142,476.929993 
	C621.171326,477.680542 624.106812,476.553436 627.362793,473.959137 
z"/>
<path fill="#000000" opacity="1.000000" stroke="none" 
	d="
M463.772827,383.064514 
	C468.620941,368.689667 479.298431,363.233551 491.010529,368.815155 
	C495.917023,371.153412 499.103058,375.081757 501.113373,380.023071 
	C505.000122,389.576599 501.249298,403.300842 493.054779,409.329407 
	C486.586548,414.087921 479.548584,415.086090 472.467560,411.131256 
	C464.848480,406.875885 462.314819,399.593964 462.397308,391.304230 
	C462.423370,388.685364 463.230011,386.074280 463.772827,383.064514 
M489.589386,377.173492 
	C487.060394,378.520172 486.104584,380.618042 486.901978,383.345703 
	C487.447418,385.211548 488.771149,386.453186 490.763916,386.740936 
	C492.855530,387.042969 494.770630,386.575836 496.008636,384.748718 
	C497.212524,382.971985 497.296143,380.932007 496.172455,379.139069 
	C494.832184,377.000488 492.836670,376.009277 489.589386,377.173492 
z"/>
<path fill="#000000" opacity="1.000000" stroke="none" 
	d="
M586.736938,362.017334 
	C587.735168,359.290131 588.917297,357.095520 590.551514,355.189331 
	C597.112061,347.536865 608.273010,348.785095 613.009705,357.676453 
	C618.047119,367.132385 615.610046,384.113617 608.117981,391.760620 
	C600.532532,399.502960 589.510986,397.367096 585.560852,387.277649 
	C582.270264,378.873016 584.287537,370.604401 586.736938,362.017334 
M611.639404,369.091278 
	C613.446289,366.060028 612.702820,363.354919 610.410217,361.006073 
	C608.628601,359.180786 606.409424,358.832062 604.023438,359.774323 
	C601.239990,360.873566 599.951538,363.091461 599.806763,365.922974 
	C599.669250,368.614319 600.835388,370.717377 603.358948,371.907776 
	C606.613342,373.442963 609.068054,372.070618 611.639404,369.091278 
z"/>
<path fill="#000000" opacity="1.000000" stroke="none" 
	d="
M576.339905,271.366150 
	C572.624817,274.231201 569.389343,277.103058 566.681946,280.499146 
	C565.805847,281.598114 565.081787,282.853271 563.522766,282.089142 
	C561.710083,281.200714 562.187378,279.559326 562.816956,278.184845 
	C563.433411,276.839081 564.210876,275.519318 565.145996,274.374695 
	C573.337219,264.348022 583.294067,256.352081 594.134583,249.394623 
	C595.545715,248.488953 597.287415,247.403885 598.617371,249.056320 
	C600.169434,250.984833 598.493652,252.487259 597.116577,253.671494 
	C590.308960,259.525726 583.446289,265.315918 576.339905,271.366150 
z"/>
</svg>